<svg width="200" height="80" viewBox="0 0 200 80" fill="none" xmlns="http://www.w3.org/2000/svg">
  <!-- Background -->
  <rect width="200" height="80" rx="8" fill="#dc2626"/>
  
  <!-- Cross symbol -->
  <g transform="translate(20, 20)">
    <rect x="12" y="5" width="6" height="30" fill="white" rx="3"/>
    <rect x="5" y="12" width="20" height="6" fill="white" rx="3"/>
  </g>
  
  <!-- Stethoscope -->
  <g transform="translate(55, 25)" stroke="white" stroke-width="2" fill="none">
    <path d="M2 8 C2 4, 6 4, 6 8 L6 15 C6 20, 10 24, 15 24 C20 24, 24 20, 24 15 L24 8 C24 4, 28 4, 28 8"/>
    <circle cx="15" cy="28" r="4" fill="white"/>
    <circle cx="2" cy="8" r="2" fill="white"/>
    <circle cx="28" cy="8" r="2" fill="white"/>
  </g>
  
  <!-- Text -->
  <text x="95" y="35" font-family="Arial, sans-serif" font-size="18" font-weight="bold" fill="white">FARMACIAS</text>
  <text x="95" y="55" font-family="Arial, sans-serif" font-size="24" font-weight="bold" fill="white">talPharma</text>
</svg>